<?xml version="1.0" encoding="iso-8859-1"?>
<!-- Generator: Adobe Illustrator 29.8.3, SVG Export Plug-In . SVG Version: 9.03 Build 0)  -->
<svg version="1.1" id="Camada_1" xmlns="http://www.w3.org/2000/svg" xmlns:xlink="http://www.w3.org/1999/xlink" x="0px" y="0px"
	 viewBox="0 0 7400.867 2520.4" style="enable-background:new 0 0 7400.867 2520.4;" xml:space="preserve">
<g>
	<path style="fill:#FFFFFF;" d="M1888.531,1580.563c-2.607-7.401-3.869-11.775-3.869-13.036c0-8.663,5.13-16.064,15.391-22.288
		l138.522-76.116c5.13-3.701,10.261-5.551,15.391-5.551c7.654,0,14.719,4.962,21.195,14.887
		c51.304,66.78,121.197,100.254,209.676,100.254c47.436,0,83.685-8.074,108.665-24.138c24.979-16.064,37.511-37.764,37.511-64.93
		s-13.121-48.529-39.446-64.005c-26.325-15.475-71.49-30.615-135.578-45.501c-103.871-24.727-188.481-59.715-253.915-104.88
		c-65.434-45.165-98.067-111.693-98.067-199.499c0-55.678,15.98-106.057,48.109-151.306
		c32.044-45.165,77.545-80.405,136.588-105.805c58.958-25.316,126.327-38.016,201.938-38.016
		c176.958,0,303.201,64.93,378.896,194.873c2.523,7.401,3.869,11.775,3.869,12.952c0,7.401-5.131,14.214-15.392,20.438
		l-138.606,68.714c-7.654,2.523-12.868,3.701-15.391,3.701c-8.999,0-16.064-4.289-21.195-12.952
		c-42.305-59.379-104.544-89.068-186.547-89.068c-39.782,0-72.163,7.401-97.142,22.288s-37.511,34.063-37.511,57.528
		c0,24.727,12.532,43.651,37.511,56.603s66.359,26.325,124.056,39.866c71.826,19.849,132.719,40.791,182.762,63.079
		s92.601,54.164,127.925,95.628c35.24,41.464,52.903,94.955,52.903,160.558c0,59.379-16.317,112.281-49.034,158.708
		c-32.717,46.426-79.564,82.592-140.372,108.581c-60.893,25.989-132.382,38.941-214.47,38.941
		C2096.861,1781.071,1965.488,1714.207,1888.531,1580.563z"/>
	<path style="fill:#FFFFFF;" d="M3083.758,1756.933h-207.741c-17.999,0-26.914-8.663-26.914-25.989V407.54
		c0-17.326,8.915-25.989,26.914-25.989h207.741c17.915,0,26.914,8.663,26.914,25.989v770.241l373.093-360.057
		c8.915-8.663,19.849-12.952,32.717-12.952h265.438c7.654,0,13.457,1.598,17.326,4.626c3.869,3.112,5.803,6.476,5.803,10.177
		c0,4.962-3.196,10.513-9.588,16.737l-371.243,341.553l386.635,547.529c3.869,4.962,5.803,9.924,5.803,14.887
		c0,11.102-7.654,16.737-23.045,16.737h-253.915c-15.391,0-26.325-5.551-32.717-16.737l-280.829-410.184l-115.393,109.506v291.427
		C3110.672,1748.27,3101.673,1756.933,3083.758,1756.933z"/>
	<path style="fill:#FFFFFF;" d="M3918.34,2163.416c-4.542-3.7-7.401-9.925-8.663-18.587l-19.26-170.735v-3.701
		c0-13.625,7.654-21.699,23.045-24.138l44.24-5.551c61.565-7.401,109.001-17.326,142.307-29.689
		c33.306-12.364,58.958-28.764,76.957-49.202c17.915-20.438,34.652-49.202,50.043-86.292l17.326-40.791l-388.569-900.184
		c-1.262-2.439-1.934-6.14-1.934-11.102c0-12.364,7.654-18.587,23.045-18.587h234.655c14.13,0,24.307,6.812,30.783,20.438
		l240.458,627.345l230.786-627.345c6.392-13.625,16.653-20.438,30.783-20.438h211.61c10.261,0,17.326,2.775,21.195,8.326
		c3.869,5.551,3.869,12.7,0,21.363L4469.4,1831.198c-26.914,65.603-59.294,120.355-97.142,164.259
		c-37.848,43.903-88.143,80.069-150.97,108.581c-62.827,28.428-142.307,48.865-238.524,61.229l-44.24,3.7
		C3929.526,2168.967,3922.797,2167.117,3918.34,2163.416z"/>
</g>
<path style="fill-rule:evenodd;clip-rule:evenodd;fill:#FFFFFF;" d="M1576.891,1259.77V855.168
	c0-94.794-47.013-176.221-129.132-223.618l-430.72-248.661c-82.119-47.397-176.144-47.397-258.263,0l-442.32,255.574
	c89.109-51.622,178.526-3.303,250.043,38.025l44.939,25.965L1576.891,1259.77L1576.891,1259.77z"/>
<path style="fill-rule:evenodd;clip-rule:evenodd;fill:#E8E8E8;" d="M198.003,819.754
	c-17.207,140.808,63.068,258.647,180.907,326.631l296.058,170.921v-278.389c0-159.628,55.77-240.518,143.266-217.089L566.5,676.411
	c-71.518-41.328-160.934-89.647-250.044-38.025C323.293,634.315,213.059,696.154,198.003,819.754L198.003,819.754z"/>
<path style="fill-rule:evenodd;clip-rule:evenodd;fill:#FFFFFF;" d="M195.621,1260.154v404.679
	c0,94.794,47.013,176.221,129.132,223.618l430.72,248.661c82.119,47.397,176.144,47.397,258.263,0l442.397-255.574
	c-89.109,51.622-178.526,3.303-250.044-38.025l-44.939-25.965L195.621,1260.154L195.621,1260.154z"/>
<path style="fill-rule:evenodd;clip-rule:evenodd;fill:#E8E8E8;" d="M1574.586,1700.246
	c17.207-140.808-63.068-258.647-180.907-326.631l-296.134-170.997v278.39c0,83.271-20.664,249.967-143.266,217.088l251.81,145.34
	c71.518,41.328,160.934,89.647,250.043,38.025C1449.296,1885.685,1559.453,1823.846,1574.586,1700.246L1574.586,1700.246z"/>
<g>
	<path style="fill:#FFFFFF;" d="M5613.994,994.435c-6.676,34.87-14.84,69.93-24.491,105.163
		c-9.651,35.25-20.219,68.822-31.706,100.718c-11.502,31.895-22.814,60.832-33.936,86.779
		c-15.584,40.075-31.912,75.878-48.967,107.394c-17.071,31.531-31.167,55.833-42.29,72.888
		c-11.866,18.542-24.111,33.193-36.721,43.951c-12.609,10.758-26.896,18.368-42.844,22.814c-15.948,4.462-35.803,6.677-59.535,6.677
		H5186.68c-10.395,0-19.492-3.338-27.276-10.015c-7.784-6.677-12.419-15.204-13.891-25.599l-92.364-510.77h144.653l57.874,452.912
		h15.584c14.081,0,25.203-2.769,33.367-8.338s17.435-17.245,27.829-35.06c8.892-14.84,19.46-35.234,31.706-61.212
		c12.245-25.963,25.044-57.114,38.398-93.471c17.799-45.248,31.706-87.918,41.72-127.977s18.732-82.333,26.168-126.854
		L5613.994,994.435L5613.994,994.435z"/>
	<path style="fill:#FFFFFF;" d="M5866.601,994.435l-75.673,546.384h-134.654l76.78-546.384H5866.601z M5858.801,757.403
		c14.84,0,25.409,3.908,31.721,11.692c6.297,7.8,8.717,18.368,7.23,31.721l-7.784,61.196c-3.718,25.219-18.558,37.828-44.521,37.828
		h-57.858c-28.937,0-41.546-14.461-37.844-43.397l7.8-61.196c2.959-25.219,17.419-37.844,43.397-37.844L5858.801,757.403
		L5858.801,757.403z"/>
	<path style="fill:#FFFFFF;" d="M6217.107,981.082c45.249,0,91.43,2.974,138.546,8.907c47.1,5.933,86.969,14.097,119.624,24.475
		l-23.368,65.658c-37.101-0.728-70.293-1.471-99.594-2.215c-29.301-0.744-56.197-1.123-80.672-1.123
		c-30.424,0-55.643,2.231-75.672,6.677c-20.03,4.462-35.993,12.989-47.859,25.599c-11.866,12.609-21.517,31.152-28.937,55.643
		s-14.097,57.13-20.03,97.917c-5.933,44.521-8.717,79.754-8.337,105.717c0.364,25.978,5.363,44.331,15.014,55.089
		c9.651,10.758,25.235,16.122,46.751,16.122c34.854,0,68.601-10.568,101.255-31.706c32.639-21.137,69.74-51.371,111.286-90.703
		l25.583,60.105c-12.61,16.327-28.368,34.68-47.29,55.073c-18.922,20.409-40.803,39.885-65.658,58.427s-51.751,33.762-80.672,45.628
		c-28.937,11.85-59.725,17.799-92.364,17.799c-39.332,0-71.037-9.651-95.148-28.921c-24.111-19.286-40.249-50.818-48.413-94.595
		c-8.164-43.761-7.784-100.891,1.124-171.375c8.892-59.345,20.773-107.378,35.613-144.099s32.829-64.724,53.966-84.026
		c21.137-19.286,45.438-32.449,72.888-39.505C6152.193,984.61,6182.981,981.082,6217.107,981.082z M6556.519,761.864
		l-110.179,778.955h-105.717l3.338-130.192l-12.23-8.907l51.182-381.685l10.015-17.815c0-19.27,0.728-38.002,2.215-56.181
		s3.718-37.654,6.692-58.428l18.922-125.747L6556.519,761.864L6556.519,761.864z"/>
	<path style="fill:#FFFFFF;" d="M6912.59,981.082c19.286,0,40.613,0.744,63.98,2.231s46.926,3.528,70.673,6.123
		c23.731,2.595,46.546,5.569,68.442,8.907c21.88,3.338,40.613,6.851,56.197,10.553l-82.349,76.796
		c-34.142-1.487-65.12-2.595-92.934-3.338c-27.814-0.744-51.735-1.123-71.765-1.123c-29.68,0-54.346,2.041-73.995,6.123
		c-19.666,4.082-35.804,12.246-48.413,24.491s-22.814,30.408-30.598,54.52c-7.8,24.111-14.666,56.197-20.583,96.256
		c-6.677,49.71-10.015,87.554-10.015,113.517c0,25.962,5.189,43.761,15.568,53.412c10.378,9.651,26.342,14.46,47.859,14.46
		c22.988-0.744,46.356-7.056,70.104-18.922c23.732-11.866,47.843-28.921,72.334-51.181c24.475-22.245,48.951-48.223,73.442-77.903
		l24.475,50.074c-16.328,39.331-38.572,74.565-66.765,105.717c-28.193,31.168-60.453,55.833-96.81,74.011
		c-36.357,18.163-76.036,27.624-119.07,28.367c-46.008,0.728-81.432-8.733-106.271-28.367
		c-24.855-19.65-40.439-51.561-46.736-95.702c-6.312-44.141-4.651-101.081,5-170.821c9.651-62.304,22.624-112.204,38.952-149.668
		c16.327-37.464,36.721-65.278,61.212-83.457c24.476-18.178,53.223-30.234,86.241-36.167
		C6833.769,984.057,6871.043,981.082,6912.59,981.082z M7038.336,1003.343l133.547,5.553l-74.565,531.923h-104.594l4.446-125.747
		l-15.584-12.246L7038.336,1003.343z"/>
</g>
</svg>
